<svg xmlns="http://www.w3.org/2000/svg" width="200" height="200" viewBox="0 0 144.012 144.014" xmlns:v="https://vecta.io/nano"><style><![CDATA[.B{fill:#b78a2d}.C{fill:none}.D{stroke:#fff}.E{stroke-width:.464}.F{fill:#2b2b88}.G{stroke-width:.599}]]></style><path d="M43.797 113.796l-11.683 18.07a71.33 71.33 0 0 0 39.895 12.148c15.193 0 29.305-4.751 40.937-12.855l-11.104-16.462-58.046-.901h0z" class="B"/><path d="M91.756 117.636l-47.732-.677-9.533 14.312c10.866 6.952 23.754 10.987 37.565 10.987 14.168 0 27.367-4.245 38.407-11.539l-9.297-14.212-9.41 1.13h0z" class="F"/><path d="M125.56 74.936l18.391.512.063-3.129C144.014 32.439 111.713 0 72.011 0S0 32.439 0 72.32c0 1.32.035 2.631.108 3.936l18.787-.766 106.665-.553h0z" class="B"/><path d="M1.881 72.124l.027 1.909 13.95-.571c-.008-.452 112.195-.845 112.186-.604l13.963.384.017-1.119c0-38.805-31.433-70.37-70.074-70.37-38.634.001-70.069 31.564-70.069 70.371h0z" class="F"/><path d="M17.829 72.32c0 29.975 24.307 54.36 54.18 54.36s54.17-24.385 54.17-54.36-24.299-54.361-54.17-54.361-54.18 24.384-54.18 54.361h0z" class="B"/><path d="M120.391 75.967l.056-9.205-3.677.083c-.362-2.969-1.008-5.844-1.914-8.609l3.255-1.339-3.458-8.523-3.483 1.554c-1.454-2.543-3.15-4.937-5.047-7.139l2.624-2.627-6.445-6.531-2.756 2.92a44.2 44.2 0 0 0-7.307-4.636l1.481-3.589-8.433-3.543-1.482 3.891a44.48 44.48 0 0 0-8.472-1.452l.012-4.018-9.143-.017.112 4.267a45.04 45.04 0 0 0-8.349 1.894l-1.545-3.779-8.453 3.516 1.754 3.935a45.01 45.01 0 0 0-7.001 4.942l-2.878-2.898-6.465 6.506 3.096 2.944a44.85 44.85 0 0 0-4.624 7.249l-3.741-1.622-3.614 8.454 4.066 1.623c-.706 2.546-1.197 5.172-1.442 7.874l-3.941-.051-.113 9.205 4.111-.061c.32 2.918.901 5.758 1.752 8.488l-3.603 1.456 3.391 8.546 3.751-1.635a45.46 45.46 0 0 0 4.867 7.161l-2.768 2.727 6.384 6.584 2.834-2.953c2.239 1.806 4.654 3.406 7.214 4.764l-1.504 3.552 8.409 3.608 1.468-3.749a44.36 44.36 0 0 0 8.504 1.617l-.042 3.785 9.143.088-.075-3.947a44.56 44.56 0 0 0 8.505-1.772l1.369 3.411 8.477-3.451-1.53-3.52a45.31 45.31 0 0 0 7.205-4.958l2.506 2.556 6.507-6.455-2.69-2.598c1.829-2.288 3.437-4.761 4.79-7.386l3.194 1.358 3.551-8.484-3.39-1.329c.786-2.796 1.316-5.709 1.552-8.7l3.444.019h0z" class="F"/><path d="M113.578 72.32c0 23.028-18.612 41.684-41.569 41.684-22.966 0-41.583-18.657-41.583-41.684s18.618-41.68 41.583-41.68c22.957 0 41.569 18.659 41.569 41.68h0z" fill="#fff"/><path d="M43.784 134.438l-1.169-4.245c-.129-.543-.345-1.048-.84-1.363-.247-.158-.48-.273-.759-.148-.957.437-.28 1.48.178 1.979.68.759 1.555 1.023 2.554.895.612-.076 1.275-.409 1.27-1.137-.016-.865-.919-1.44-.97-2.253-.051-.863.707-.754 1.319-.538l3.233 1.398m-1.755 4.742l2.222-6.419m0 7.35l2.215-6.419m-8.226-4.096s5.175 3.626 15.257 5.958m-3.149 6.517l1.668-6.795m-.829 3.255l-2.497-.834c-.374-.125-.874-.143-1.227.035-.429.209-.551.877-.226 1.231.507.538 1.214-.55.81-.712m8.594-1.303l-.282 3.54s.374 1.398 2.494 1.398h.374m.275-4.753l-.275 6.617m-3.697-7.637s10.077 1.95 17.933.74m-10.355.374c.621.877 1.617 1.731 1.773 2.85.196 1.459-1.167 1.699-2.328 1.529m-1.017-1.677s1.018 2.7 3.698 4.748m3.132-7.241c.005 1.001.205 2.162.205 3.16 0 .505.056 1.632-.492 1.91-.541.275-1.143-.308-1.253-.806-.32-1.506 4.137-.94 5.067-.935m-.463-3.448l.555 6.802m9.154-8.195l1.474 6.424m-1.106-3.818l-2.405.282s-2.602.138-2.408 1.676c0 0-.088 1.398 1.946 1.119l3.514-.468m-3.978-2.049l2.222 2.143m6.832.653s-2.954-.279-2.859-2.425c0 0 .091-2.234 2.034-1.96 0 0 1.018.195.649 1.4 0 0 1.939-4.191 3.973-2.234 0 0 1.018 1.124-.639 3.821m-14.797-3.728s11-.928 21.443-7.448m-4.708 2.887l1.848 3.355c.38.686-.411 1.691-1.138 1.368-.915-.407-.36-1.349.215-1.743l3.882-1.673m-1.848-2.985l3.143 5.963m-10.824-2.423l.84 2.606" class="C D G"/><path d="M57.825 127.826c0 .306-.248.547-.547.547-.307 0-.551-.242-.551-.547a.55.55 0 0 1 .551-.552.55.55 0 0 1 .547.552h0zm18.867 2.115c0 .306-.24.543-.546.543a.54.54 0 0 1-.544-.543c0-.308.245-.552.544-.552.306 0 .546.244.546.552h0z" fill="#fff"/><path d="M56.235 71.368c0 1.102-.891 1.997-1.981 1.997s-1.983-.895-1.983-1.997a1.99 1.99 0 0 1 1.983-1.992 1.99 1.99 0 0 1 1.981 1.992h0z" class="F"/><path d="M32.383 72.367c0 21.903 17.864 39.587 39.568 39.759L48.544 40.244c-9.796 7.252-16.161 18.94-16.161 32.123h0z" fill="#5ccae8"/><path d="M94.143 39.372l-21.52 72.838c21.548-.367 38.899-18.064 38.899-39.843a39.88 39.88 0 0 0-17.379-32.995h0z" fill="#ffe275"/><path d="M71.951 32.521c-7.944 0-15.346 2.363-21.548 6.425l21.903 67.584 20.316-68.137c-6.015-3.721-13.093-5.872-20.671-5.872h0z" fill="#cf2027"/><use href="#F" class="B"/><use href="#F" class="C D E"/><use href="#G" class="B"/><use href="#G" class="C D E"/><use href="#H" class="B"/><use href="#H" class="C D E"/><use href="#I" class="B"/><use href="#I" class="C D E"/><use href="#J" class="B"/><use href="#J" class="C D E"/><use href="#K" class="B"/><g class="C D"><use href="#K" class="E"/><path d="M45.179 54.253l4.799 6.093 3.962 10.29-2.294 9.029-4.796 7.355-9.173-7.147 6.04-6.294 5.844-11.552m4.17 9.447l-15.224-7.143 5.21-11.124m1.257 20.372l5.631 6.715m-13.138 0l4.377 10.502.6.629 7.95 8.398 12.514 5.46 1.456.422-4.377-11.966-19.603-2.521m7.305-2.943l3.129 12.805" class="G"/></g><path d="M40.384 64.124a2.3 2.3 0 0 1-2.291 2.311 2.3 2.3 0 0 1-2.295-2.311c0-1.273 1.027-2.31 2.295-2.31s2.291 1.037 2.291 2.31h0zm21.691 28.979c0 1.275-1.026 2.312-2.298 2.312-1.265 0-2.296-1.037-2.296-2.312a2.3 2.3 0 0 1 2.296-2.306 2.3 2.3 0 0 1 2.298 2.306h0zm4.165 12.396c0 1.275-1.024 2.307-2.294 2.307-1.263 0-2.294-1.032-2.294-2.307a2.31 2.31 0 0 1 2.294-2.315c1.269 0 2.294 1.036 2.294 2.315h0zM46.431 52.575c0 1.275-1.024 2.312-2.289 2.312a2.31 2.31 0 0 1-2.298-2.312c0-1.275 1.031-2.312 2.298-2.312s2.289 1.035 2.289 2.312h0z" fill="#fff"/><path d="M52.48 61.08c0 1.1-.89 1.997-1.984 1.997a1.99 1.99 0 0 1-1.979-1.997c0-1.102.885-1.997 1.979-1.997s1.984.895 1.984 1.997h0zm-6.049 11.763c0 1.1-.886 1.992-1.978 1.992s-1.978-.893-1.978-1.992.884-1.992 1.978-1.992 1.978.888 1.978 1.992h0zm6.886 7.98c0 1.102-.884 1.995-1.983 1.995a1.99 1.99 0 0 1-1.978-1.995c0-1.107.889-1.997 1.978-1.997 1.098-.001 1.983.89 1.983 1.997h0zm-13.555-1.052a1.99 1.99 0 0 1-1.983 1.995c-1.094 0-1.981-.893-1.981-1.995s.886-1.995 1.981-1.995 1.983.888 1.983 1.995h0zm9.176 7.562a1.99 1.99 0 0 1-1.988 1.992c-1.092 0-1.977-.89-1.977-1.992s.885-1.998 1.977-1.998 1.988.891 1.988 1.998h0zm-4.796 3.777c0 1.102-.886 1.992-1.981 1.992-1.103 0-1.985-.89-1.985-1.992s.883-1.996 1.985-1.996a1.99 1.99 0 0 1 1.981 1.996h0zm8.964 9.237c0 1.107-.884 1.997-1.978 1.997s-1.981-.89-1.981-1.997a1.99 1.99 0 0 1 1.981-1.991c1.094 0 1.978.896 1.978 1.991h0z" class="F"/><use href="#L" class="B"/><use href="#L" class="C D E"/><use href="#M" class="B"/><use href="#M" class="C D E"/><g fill="#fff"><path d="M12.713 69.218l.031-.48c.016-.304-.07-.523-.253-.659s-.522-.221-.999-.247c-.499-.03-.852.013-1.048.141-.197.122-.299.367-.323.737l-.024.345 2.615.162h0zm-3.715-.227l.026-.387c.017-.3-.051-.505-.215-.627s-.465-.196-.913-.226c-.399-.025-.683.018-.833.124-.164.101-.251.309-.268.62l-.022.36 2.223.137m4.817 1.432l-8.222-.503.116-1.877c.035-.544.219-.93.565-1.173s.854-.344 1.53-.304c.551.035.966.124 1.261.272.288.15.454.356.501.616.073-.295.28-.508.615-.653s.775-.2 1.318-.167c.873.053 1.502.232 1.892.539.4.304.573.754.538 1.344l-.113 1.907m.327-4.439l-8.179-.974.135-1.156 8.178.973-.134 1.157zm-4.246-4.085l.113-.659c.061-.332.013-.579-.134-.74-.158-.164-.461-.286-.914-.367-.399-.076-.69-.051-.884.063-.184.111-.314.355-.376.725l-.103.565 2.297.413h0zm4.486 1.965l-8.103-1.459.362-2.068c.11-.622.363-1.047.742-1.261s.944-.256 1.689-.124c.529.099.928.25 1.207.445.278.206.415.452.417.749.288-.512.943-.694 1.973-.533l.106.025 1.078.155c.308.046.555.063.751.046a1.2 1.2 0 0 0 .512-.141l-.245 1.374a3.33 3.33 0 0 1-.49-.013c-.189-.012-.448-.055-.786-.108l-.851-.141-.216-.035c-.473-.085-.811-.071-1.008.055-.205.122-.351.415-.429.878l-.076.39 3.565.644-.198 1.121m.865-4.609L7.27 57.191l.293-1.128 6.613 1.712.524-2.062 1.359.354-.814 3.19zm-1.738-6.025l.308-.947-3.434-.633 3.126 1.58h0zm2.587 2.651l-7.35-3.987.495-1.488 8.262 1.292-.4 1.192-2.063-.372-.425 1.279 1.862.952-.38 1.132m2.385-6.532l-7.528-3.352.468-1.071 7.527 3.355-.467 1.067zm.846-1.953l-7.31-3.809.548-1.075 5.861 1.209-5.124-2.637.496-.978 7.313 3.804-.544 1.067-5.873-1.203 5.133 2.636-.502.986z"/><path d="M19.064 41.693l.618-1 .448.282c.431.268.747.413.95.428s.373-.077.501-.278c.122-.209.152-.409.082-.608s-.24-.381-.514-.552a1.45 1.45 0 0 0-.606-.22c-.202-.02-.493.024-.883.124l-.786.217c-.675.192-1.175.266-1.517.223-.331-.043-.693-.184-1.089-.431-.585-.367-.965-.789-1.136-1.267s-.108-.948.189-1.42c.303-.494.714-.765 1.234-.806s1.106.143 1.772.558l.155.1a.5.5 0 0 1 .09.066l-.583.943-.188-.12c-.385-.236-.683-.361-.909-.365-.216-.01-.394.094-.533.306-.099.162-.116.33-.049.499s.209.324.428.46c.299.184.75.184 1.368-.004l.834-.242c.575-.179 1.062-.242 1.45-.198.385.049.812.221 1.278.512.633.398 1.038.84 1.209 1.334s.1 1.001-.22 1.512c-.336.543-.766.83-1.287.865s-1.161-.179-1.896-.647a5.59 5.59 0 0 1-.383-.256l-.026-.016h0zm5.406-3.062l-5.556-4.07-.791 1.1-1.104-.804 2.269-3.152 1.107.806-.791 1.096 5.556 4.067-.69.956zm1.812-2.425l-6.405-5.213.738-.911 6.393 5.217-.726.906zm1.942-2.343l-5.113-4.624-.903 1.013-1.009-.922 2.581-2.891 1.015.917-.903 1.009 5.112 4.622-.78.876zm-3.7-8.197l.836-.806 3.85 4.038c.438.463.775.735 1.02.818.238.082.473.02.69-.197.22-.209.286-.428.211-.678s-.338-.608-.784-1.074l-3.831-4.024.824-.794 3.936 4.129c.381.403.646.712.786.929s.239.439.294.657a1.6 1.6 0 0 1-.035.932c-.094.298-.278.577-.552.842-.517.502-1.026.704-1.516.611s-1.089-.509-1.8-1.24l-3.931-4.142h0zm9.905 2.085l-4.379-5.337-1.043.864-.859-1.054 2.978-2.477.865 1.056-1.036.86 4.377 5.332-.903.755zm2.315-1.889l-4.807-6.734 2.609-1.884.805 1.124-1.668 1.205 1.107 1.548 1.548-1.124.761 1.069-1.552 1.118 1.325 1.859 1.709-1.234.805 1.142-2.644 1.912zm3.848-7.531c.663 1.185 1.137 1.904 1.416 2.15s.558.294.831.131c.286-.159.392-.415.325-.772-.07-.363-.436-1.143-1.116-2.339-.67-1.198-1.138-1.922-1.419-2.167-.275-.25-.547-.292-.833-.134s-.38.419-.309.782.43 1.148 1.105 2.348h0zm-1.039.588l-.94-1.885c-.205-.486-.314-.879-.324-1.179-.02-.414.032-.757.173-1.021s.382-.498.743-.701.688-.296.981-.282.62.141.963.38c.247.173.532.473.834.896.309.426.677 1.021 1.107 1.783l.937 1.867c.207.492.324.888.332 1.189.025.42-.036.758-.173 1.03-.137.265-.389.494-.748.697s-.687.3-.978.285c-.294-.024-.616-.15-.958-.389-.247-.161-.526-.46-.836-.885s-.677-1.023-1.112-1.784m6.285 1.235l-3.498-7.503 2.961-1.4.57 1.227-1.91.901.821 1.77 1.807-.854.555 1.201-1.804.855 1.549 3.307-1.052.497zm6.294-2.705l-2.267-6.535-1.27.45-.455-1.291 3.652-1.287.446 1.294-1.271.446 2.273 6.53-1.107.392zm2.821-.962L52.769 8.49l3.1-.855.358 1.337-1.981.55.509 1.839 1.843-.51.343 1.258-1.843.516.6 2.204 2.033-.563.364 1.353-3.142.869zm5.719-4.411l1.106-.22c.002.035.019.084.039.153l.035.158c.184.942.168 1.667-.035 2.179-.215.515-.627.834-1.248.959-.289.058-.553.058-.776 0a1.49 1.49 0 0 1-.636-.358c-.263-.239-.486-.6-.669-1.074s-.392-1.326-.634-2.548l-.327-2.015c-.033-.5-.029-.889.026-1.154.088-.405.243-.713.459-.934.21-.209.501-.357.883-.437.619-.122 1.118.004 1.486.375s.641 1.036.833 1.985l-1.104.223-.042-.196c-.088-.439-.203-.755-.354-.949s-.339-.268-.558-.225c-.274.052-.435.241-.474.558s.078 1.157.343 2.508c.293 1.463.511 2.348.674 2.643s.374.419.646.363c.257-.051.411-.211.467-.476.051-.272.012-.742-.122-1.408l-.018-.109h0zm2.448 2.54l-.947-8.237 1.143-.134.375 3.228 1.579-.185-.373-3.228 1.153-.136.954 8.235-1.15.136-.432-3.734-1.582.186.436 3.732-1.156.137zm4.789-.523l-.275-8.289 1.192-.042 1.824 5.743-.228-5.796 1.099-.038.277 8.285-1.187.045-1.829-5.75.228 5.803-1.101.04zm6.053-4.211c-.061 1.362-.047 2.221.061 2.582s.32.546.646.559c.318.013.544-.149.674-.488s.228-1.198.296-2.572.049-2.242-.059-2.6-.32-.538-.632-.556c-.323-.018-.551.152-.686.497s-.239 1.208-.301 2.578h0zm-1.184-.053l.191-2.104c.084-.518.205-.906.355-1.172.196-.363.423-.622.681-.772s.585-.212.996-.198c.409.024.742.118.98.292.247.174.45.452.622.837.117.278.189.683.222 1.208.044.522.044 1.227 0 2.098l-.189 2.087c-.088.523-.203.923-.345 1.186-.205.367-.429.622-.686.772s-.6.214-1.003.2c-.416-.022-.739-.122-.977-.294-.247-.171-.45-.452-.609-.838-.122-.268-.208-.669-.243-1.195s-.035-1.232.005-2.108m4.667 4.413l.994-8.23 1.15.141-.829 6.827 2.1.256-.172 1.405-3.243-.399zm5.726-3.357c-.266 1.335-.375 2.191-.32 2.562.047.366.231.583.548.648.308.063.56-.064.741-.378.177-.32.409-1.152.673-2.502s.375-2.208.329-2.58c-.054-.363-.238-.583-.553-.645s-.56.07-.743.389c-.191.322-.415 1.156-.674 2.506h0zm-1.167-.235l.492-2.046c.164-.505.34-.872.524-1.106.25-.333.509-.557.786-.666s.618-.12 1.02-.045c.409.082.71.23.923.433.22.209.385.514.495.92.068.292.086.703.044 1.229s-.145 1.214-.318 2.073c-.161.857-.336 1.536-.492 2.041-.166.504-.336.876-.514 1.12-.257.33-.523.552-.793.663-.278.105-.615.122-1.025.045-.404-.085-.707-.226-.923-.433s-.375-.512-.473-.922c-.086-.284-.11-.693-.066-1.219.039-.532.147-1.226.319-2.088m6.931 5.904l.168-.896c-.233.35-.462.576-.71.683-.245.113-.548.113-.891.013-.639-.182-.992-.627-1.07-1.332s.125-1.903.595-3.586l.63-1.867c.201-.456.397-.796.609-1.02.245-.271.511-.45.817-.525.296-.078.644-.063 1.031.048.639.189 1.055.522 1.248 1.021.196.49.168 1.167-.068 2.026l-.063.203-1.048-.301.027-.085c.135-.48.173-.863.105-1.146a.67.67 0 0 0-.492-.539c-.329-.097-.6.006-.819.301-.213.297-.523 1.161-.928 2.585-.315 1.13-.475 1.903-.465 2.312.005.415.159.66.455.752.303.084.548.01.756-.223.191-.235.389-.675.572-1.317l.076-.272-.776-.225.36-1.272 1.867.533-1.236 4.343-.75-.215h0zm2.686.917l1.222-3.295.117-5.056 1.214.462-.203 3.249 1.966-2.586 1.179.443-3.176 3.904-1.224 3.293-1.094-.413zm9.209-2.139c.213-.072.389-.165.527-.278a1.22 1.22 0 0 0 .333-.401c.088-.178.13-.328.117-.454s-.079-.217-.198-.278c-.128-.061-.24-.064-.348-.013s-.203.168-.291.334a.47.47 0 0 0-.049.15l-.032.214-.059.724h0zm-1.304 3.983l.098-2.472a1.67 1.67 0 0 0-.649.337 1.82 1.82 0 0 0-.467.602 1.77 1.77 0 0 0-.222.962c.03.308.14.515.35.621a.69.69 0 0 0 .38.078c.14-.004.307-.048.51-.128m-.123 1.659l.056-.562c-.254.123-.509.179-.754.179-.245-.006-.497-.075-.747-.208-.49-.25-.774-.65-.854-1.191s.047-1.15.394-1.83c.225-.44.504-.782.833-1.044.326-.254.788-.481 1.383-.67a5.67 5.67 0 0 1 .098-1.026 2.66 2.66 0 0 1 .259-.741c.222-.455.514-.753.879-.914a1.17 1.17 0 0 1 1.073.042c.387.198.621.478.707.83s.012.753-.217 1.205a2.79 2.79 0 0 1-.735.923c-.289.242-.625.413-.994.51l-.11 1.86c.119-.137.245-.295.367-.478.124-.176.24-.38.362-.615l.061-.12.847.439c-.266.514-.532.946-.822 1.305-.28.357-.572.65-.889.861l-.105 1.818-1.093-.574m5-.431l.971.659-.296.44c-.289.422-.438.737-.46.94-.027.209.056.378.252.509.208.14.404.174.6.109s.387-.226.565-.494c.14-.206.225-.404.247-.604s-.01-.491-.093-.889l-.184-.804c-.166-.683-.22-1.191-.166-1.525s.213-.699.473-1.088c.387-.575.815-.942 1.295-1.092s.947-.073 1.405.236c.478.33.725.748.756 1.274.022.526-.182 1.113-.627 1.768-.039.066-.075.113-.103.15l-.068.085-.921-.622.133-.182c.245-.377.38-.676.404-.902.012-.221-.086-.405-.294-.55-.161-.105-.32-.131-.495-.067-.166.059-.32.2-.469.413-.189.289-.205.746-.051 1.37l.21.853c.159.586.205 1.078.142 1.463-.056.387-.245.816-.551 1.27-.42.622-.879 1.013-1.374 1.168s-.989.061-1.493-.275c-.521-.356-.8-.799-.81-1.328-.017-.527.225-1.158.714-1.885.047-.079.14-.207.271-.375l.017-.025h0zm5.896 4.241l.879.703c-.024.028-.054.072-.096.126-.035.059-.068.1-.093.135-.588.748-1.146 1.211-1.675 1.379-.514.176-1.026.066-1.525-.33-.228-.185-.401-.384-.497-.597-.112-.212-.154-.456-.149-.722.014-.355.137-.762.375-1.207.247-.451.747-1.162 1.528-2.14l1.309-1.549c.348-.361.649-.603.889-.728.364-.195.693-.28.999-.256s.6.15.898.391c.499.396.725.855.686 1.381-.051.521-.372 1.167-.962 1.93l-.889-.704.122-.159c.282-.352.446-.645.49-.889.056-.242-.017-.433-.184-.571-.217-.173-.467-.173-.732 0s-.828.807-1.672 1.889c-.926 1.168-1.444 1.909-1.561 2.224-.128.316-.081.559.137.735.203.165.42.178.665.046s.565-.463.992-1l.067-.087h0zm-.32 3.576l5.469-6.197.864.772-5.469 6.201-.864-.777zm1.594 1.426l5.779-5.902 2.284 2.27-.962.985-1.462-1.452-1.328 1.358 1.361 1.353-.921.934-1.358-1.352-1.589 1.626 1.484 1.489-.975.995-2.313-2.305zm2.816 2.826l6.203-5.45.791.917-3.276 5.038 4.321-3.832.723.83-6.203 5.45-.786-.901 3.273-5.061-4.328 3.844-.718-.835zm6.95 3.942l.674.911-.119.096-.13.103c-.766.57-1.419.871-1.969.896-.551.034-1.018-.207-1.395-.722-.168-.237-.287-.47-.331-.707a1.47 1.47 0 0 1 .054-.73c.098-.344.323-.697.681-1.065.348-.375 1.018-.93 2.016-1.677l1.659-1.145c.44-.257.79-.419 1.051-.474.401-.093.747-.085 1.026.014.289.1.546.301.774.618.374.51.472 1.015.299 1.51-.179.491-.651 1.03-1.425 1.606l-.668-.908.156-.122c.352-.268.588-.506.702-.727.1-.221.096-.423-.042-.605-.164-.223-.397-.284-.693-.189-.315.1-1.009.559-2.116 1.387-1.19.885-1.887 1.463-2.086 1.732-.196.275-.213.527-.047.749.154.214.364.286.63.22s.663-.301 1.207-.71l.091-.064h0zm-1.231 3.335l6.946-4.444 1.72 2.726-1.155.743-1.097-1.746-1.601 1.023 1.019 1.625-1.097.704-1.021-1.628-1.923 1.226 1.132 1.786-1.179.752-1.745-2.768zm.7 4.213l.483-.275c.105.141.262.209.46.213.205.005.423-.061.661-.2l.068-.037-.275-.498 1.291-.73.511.911-1.302.741c-.383.223-.755.326-1.098.3s-.618-.164-.799-.423h0zm7.98 1.882l.201.449c.156.333.345.533.583.591.226.054.546-.007.966-.195.411-.19.676-.385.776-.581s.084-.474-.075-.818l-.205-.467-2.246 1.021h0zm-4.68.882l7.506-3.406.835 1.863c.25.564.264 1.049.056 1.442-.228.399-.722.77-1.469 1.116-.744.333-1.356.454-1.831.351-.485-.1-.849-.422-1.094-.965l-.345-.783-3.178 1.446-.479-1.066m1.76 4.085l7.687-2.97.416 1.089-7.687 2.973-.416-1.091zm.77 2.002l7.826-2.55.357 1.103-6.497 2.123.652 2.022-1.337.433-1.001-3.131zm4.675 4.152l.231.968 3.234-1.321-3.464.352h0zm-3.606-.84l8.327-.603.375 1.523-7.657 3.366-.301-1.223 1.939-.8-.315-1.31-2.083.206-.284-1.158m1.128 4.752l8.127-1.322.191 1.197-5.425 2.536 5.679-.959.177 1.095-8.13 1.323-.191-1.183 5.434-2.553-5.684.962-.178-1.097zm.704 4.825l8.188-.828.121 1.155-8.198.832-.11-1.16z"/></g><path d="M101.672 57.863l1.643-5.879h-.903s-1.101 8.81-6.757 11.939c0 0 1.094 3.119-.364 5.51L90.184 86.14l-2.914 2.937-2.362 6.767 2.639.937.45-.906s1.278-2.022 2.007-.186l-.546 1.649 2.365.923.913-3.674.551-2.02.179-4.589 5.84-18.361 3.106-3.859c-.001 0-1.649-4.402-.741-7.893h0zM75.42 108.364l2.007-.74.908.184.915-1.281.36.728 1.456-1.47.551.553c2.076-1.387 5.127-7.881 5.443-8.564l-2.482-.901c-1.97 6.327-9.156 11.491-9.156 11.491h0zm8.202-2.578l2.192-1.101v.918l1.27-1.098.369.914c1.414-1.102 3.572-4.935 4.237-6.165l-2.522-.912c-1.192 3.451-5.546 7.444-5.546 7.444h0z" class="F"/><g class="C"><path d="M110.059 77.878s-6.377-2.387-11.479-10.102m-10.766 3.306s10.03 0 13.679-3.119m-12.4 1.469s-.73 8.446-4.015 13.773m-.731-2.021s3.831 1.651 6.93 9.363m-.905-.366l2-1.104 9.669-3.668m-1.459 2.198s.913-9.178 2.186-10.835m.546 2.023s-4.92-3.486-6.565-6.979m-3.821 1.468l-3.104 8.634m-.367-1.841l2.914 4.78m-.902-.55s2.365-1.102 5.464-.734m-1.094 1.098l2.742-6.055m-3.647-2.023l2.546 4.04m-6.201-5.696l6.752-2.204m-6.526 5.505l5.789-.543" stroke="#b38d06" stroke-width=".928"/><path d="M102.94 133.033s-.035-2.272 3.716-.636" class="D G"/></g><defs ><path  d="M61.772-71.653c.018.072.007.127-.026.19-.053.101-.112.063-.165.128a.64.64 0 0 0-.079.362c-.169.058-.01.227-.015.35-.002.05-.041.105-.045.161-.01.119.017.266.068.37.097.198.268.413.435.544.19.148.365.572.608.631.177.042.384-.104.543-.143.18-.043.397.01.571-.053.222-.079.127-.337.288-.45.104-.074.287-.01.406-.051.2-.069.339-.263.376-.46.016-.082.01-.145.039-.221.039-.103.111-.16.09-.293-.01-.062-.052-.12-.064-.187-.022-.114.002-.224 0-.337-.003-.2.017-.379-.078-.55-.38-.688-1.236-.929-1.975-.789-.18.034-.287.126-.442.207-.17.088-.139.166-.318.224-.081.026-.216.124-.215.224.001.115.005.051.012.169-.021.011-.021-.005-.03-.025"/><path  d="M.439-71.653c.018.072.008.127-.026.19-.052.101-.113.063-.165.128a.63.63 0 0 0-.079.362c-.169.058-.01.227-.015.35-.002.05-.041.105-.045.161-.01.119.017.266.068.37.097.198.268.413.435.544.19.148.365.572.608.631.177.042.384-.104.543-.143.18-.043.397.01.571-.053.222-.079.127-.337.288-.45.104-.074.287-.01.406-.051.2-.07.339-.263.376-.46.016-.082.01-.145.039-.221.038-.103.111-.16.09-.293-.01-.062-.051-.12-.064-.187-.021-.114.002-.224 0-.337-.003-.2.017-.379-.078-.55-.38-.688-1.236-.929-1.975-.789-.18.034-.287.126-.442.207-.17.088-.139.166-.318.224-.081.026-.215.124-.215.224.002.115.005.051.012.169-.021.011-.021-.005-.03-.025"/><path  d="M61.778-64.001c.018.072.007.127-.026.19-.053.101-.112.063-.165.128a.64.64 0 0 0-.079.362c-.169.058-.009.227-.015.35-.002.05-.041.105-.045.161-.01.119.017.266.068.37.097.198.268.413.435.544.19.148.365.572.608.631.177.042.384-.104.543-.143.18-.043.397.01.571-.053.222-.079.127-.337.288-.45.104-.074.287-.01.406-.051.2-.069.339-.263.376-.46.016-.082.01-.145.039-.221.039-.103.111-.16.09-.293-.01-.062-.052-.12-.064-.187-.022-.114.002-.224 0-.337-.003-.2.017-.379-.078-.55-.38-.688-1.236-.929-1.975-.789-.18.034-.287.126-.442.207-.17.088-.139.166-.318.224-.081.026-.216.124-.215.224.001.115.005.051.012.169-.021.011-.021-.005-.03-.025"/><path  d="M.495-56.348c.018.072.007.127-.026.19-.053.101-.112.063-.165.128a.64.64 0 0 0-.079.362c-.169.058-.01.227-.015.35-.002.05-.041.105-.045.161-.01.119.017.266.068.37.097.198.268.413.435.544.19.148.365.572.608.631.177.042.384-.104.543-.143.18-.043.397.01.571-.053.222-.079.127-.337.288-.45.104-.074.287-.01.406-.051.2-.069.339-.263.376-.46.016-.082.01-.145.039-.221.039-.103.111-.16.09-.293-.01-.062-.052-.12-.064-.187-.022-.114.002-.224 0-.337-.003-.2.017-.379-.078-.55-.38-.688-1.236-.929-1.975-.789-.18.034-.287.126-.442.207-.17.088-.139.166-.318.224-.081.026-.216.124-.215.224l.013.171c-.021.011-.021-.005-.03-.025"/><path id="F" d="M71.591 70.45l-4.379-8.449 4.193-4.409 4.561 4.589-4.375 8.268z"/><path id="G" d="M64.665 61.82l-6.208-4.227 6.567-4.408 6.568 4.408-6.926 4.227z"/><path id="H" d="M70.857 56.859l-8.382-5.51 3.467-10.466 4.074 7.166.842 8.81z"/><path id="I" d="M67.515 43.72l4.076-5.958 3.862 6.244-2.683 4.991-1.948.551-3.307-5.827z"/><path id="J" d="M76.333 52.261l8.016 5.332-6.189 4.227-8.255-5.376 6.428-4.183z"/><path id="K" d="M72.497 93.134h-1.92V68.562h1.92v24.573z"/><path id="L" d="M72.137 49.883l4.739-8.636 4.163 9.88-9.426 6.578.524-7.822z"/><path id="M" d="M70.857 56.397l-2.546-6.247 3.28-4.224 3.283 4.224-3.283 6.981-.735-.734z"/></defs></svg>